<svg xmlns="http://www.w3.org/2000/svg" width="16" height="16" viewBox="0 0 16 16"><defs><style>.a{fill:#003e8b;}.b{fill:none;}</style></defs><path class="a" d="M0,10.926V.984A1.022,1.022,0,0,1,.311.259.984.984,0,0,1,.984,0H6.731a.588.588,0,0,1,.414.155.7.7,0,0,1,.311.362l.518,1.45h6.99a1.022,1.022,0,0,1,.725.311A.94.94,0,0,1,16,3v7.974a1.022,1.022,0,0,1-.311.725.94.94,0,0,1-.725.311H.984A1.022,1.022,0,0,1,.259,11.7,1.4,1.4,0,0,1,0,10.926Z" transform="translate(0 2)"/><rect class="b" width="16" height="16" transform="translate(0)"/></svg>