<svg xmlns="http://www.w3.org/2000/svg" xmlns:xlink="http://www.w3.org/1999/xlink" width="90" zoomAndPan="magnify" viewBox="0 0 67.5 30.000001" height="40" preserveAspectRatio="xMidYMid meet" version="1.0"><defs><clipPath id="9bb07bd21b"><path d="M 1.40625 0.820312 L 26 0.820312 L 26 28.402344 L 1.40625 28.402344 Z M 1.40625 0.820312 " clip-rule="nonzero"/></clipPath><clipPath id="8266e5487d"><path d="M 21 0.820312 L 46 0.820312 L 46 28.402344 L 21 28.402344 Z M 21 0.820312 " clip-rule="nonzero"/></clipPath><clipPath id="1cb0e3d24a"><path d="M 41 0.820312 L 65.277344 0.820312 L 65.277344 28.402344 L 41 28.402344 Z M 41 0.820312 " clip-rule="nonzero"/></clipPath><clipPath id="96fa2c0085"><path d="M 0.847656 0 L 34 0 L 34 29.03125 L 0.847656 29.03125 Z M 0.847656 0 " clip-rule="nonzero"/></clipPath></defs><g clip-path="url(#9bb07bd21b)"><path fill="#ffffff" d="M 2.023438 26.542969 L 13.359375 15.203125 C 13.742188 14.824219 13.742188 14.203125 13.359375 13.824219 L 2.023438 2.488281 C 1.40625 1.871094 1.84375 0.820312 2.710938 0.820312 L 11.566406 0.820312 C 11.828125 0.820312 12.074219 0.921875 12.257812 1.105469 L 24.976562 13.824219 C 25.355469 14.203125 25.355469 14.824219 24.976562 15.203125 L 12.257812 27.921875 C 12.074219 28.105469 11.828125 28.207031 11.566406 28.207031 L 2.710938 28.207031 C 1.84375 28.207031 1.40625 27.15625 2.023438 26.542969 " fill-opacity="1" fill-rule="nonzero"/></g><g clip-path="url(#8266e5487d)"><path fill="#ffffff" d="M 22.148438 26.542969 L 33.484375 15.203125 C 33.863281 14.824219 33.863281 14.203125 33.484375 13.824219 L 22.148438 2.488281 C 21.53125 1.871094 21.96875 0.820312 22.835938 0.820312 L 31.691406 0.820312 C 31.949219 0.820312 32.199219 0.921875 32.382812 1.105469 L 45.101562 13.824219 C 45.480469 14.203125 45.480469 14.824219 45.101562 15.203125 L 32.382812 27.921875 C 32.199219 28.105469 31.949219 28.207031 31.691406 28.207031 L 22.835938 28.207031 C 21.96875 28.207031 21.53125 27.15625 22.148438 26.542969 " fill-opacity="1" fill-rule="nonzero"/></g><g clip-path="url(#1cb0e3d24a)"><path fill="#ffffff" d="M 42.273438 26.542969 L 53.609375 15.203125 C 53.988281 14.824219 53.988281 14.203125 53.609375 13.824219 L 42.273438 2.488281 C 41.65625 1.871094 42.09375 0.820312 42.960938 0.820312 L 51.816406 0.820312 C 52.074219 0.820312 52.324219 0.921875 52.507812 1.105469 L 65.226562 13.824219 C 65.605469 14.203125 65.605469 14.824219 65.226562 15.203125 L 52.507812 27.921875 C 52.324219 28.105469 52.074219 28.207031 51.816406 28.207031 L 42.960938 28.207031 C 42.09375 28.207031 41.65625 27.15625 42.273438 26.542969 " fill-opacity="1" fill-rule="nonzero"/></g><g clip-path="url(#96fa2c0085)"><path stroke-linecap="butt" transform="matrix(0.445602, 0.572917, -0.572917, 0.445602, 11.426783, 2.905901)" fill="none" stroke-linejoin="miter" d="M 0.00000411602 1.999478 L 15.962095 1.998534 " stroke="#ffffff" stroke-width="4" stroke-opacity="1" stroke-miterlimit="4"/></g></svg>