<svg xmlns="http://www.w3.org/2000/svg" xmlns:xlink="http://www.w3.org/1999/xlink" width="24" zoomAndPan="magnify" viewBox="0 0 75 74.999997" height="24" preserveAspectRatio="xMidYMid meet" version="1.0"><defs><clipPath id="d71ef5690b"><path d="M 26 14 L 75 14 L 75 47 L 26 47 Z M 26 14 " clip-rule="nonzero"/></clipPath><clipPath id="0d96525d16"><path d="M -12.03125 34.246094 L 59.734375 0.0390625 L 78.773438 39.980469 L 7.011719 74.1875 Z M -12.03125 34.246094 " clip-rule="nonzero"/></clipPath><clipPath id="4fa8632d58"><path d="M 59.808594 0.00390625 L -11.957031 34.210938 L 7.082031 74.152344 L 78.847656 39.945312 Z M 59.808594 0.00390625 " clip-rule="nonzero"/></clipPath><clipPath id="f31b8e25cb"><path d="M 1 24 L 24 24 L 24 67 L 1 67 Z M 1 24 " clip-rule="nonzero"/></clipPath><clipPath id="dd9866f923"><path d="M -12.03125 34.246094 L 59.734375 0.0390625 L 78.773438 39.980469 L 7.011719 74.1875 Z M -12.03125 34.246094 " clip-rule="nonzero"/></clipPath><clipPath id="622990cb25"><path d="M 59.808594 0.00390625 L -11.957031 34.210938 L 7.082031 74.152344 L 78.847656 39.945312 Z M 59.808594 0.00390625 " clip-rule="nonzero"/></clipPath><clipPath id="2b0f66f418"><path d="M 4.871094 61.164062 L 7.074219 61.164062 L 7.074219 62.964844 L 4.871094 62.964844 Z M 4.871094 61.164062 " clip-rule="nonzero"/></clipPath><clipPath id="453d89f241"><path d="M 7.050781 61.800781 C 6.074219 63.300781 5.175781 63 4.949219 62.699219 C 4.800781 62.398438 4.949219 61.5 5.25 61.273438 C 5.550781 61.050781 6.75 61.351562 6.75 61.351562 " clip-rule="nonzero"/></clipPath></defs><g clip-path="url(#d71ef5690b)"><g clip-path="url(#0d96525d16)"><g clip-path="url(#4fa8632d58)"><path fill="#a6a6a6" d="M 26.894531 27.851562 C 27.5625 27.421875 28.453125 27.328125 28.914062 26.554688 C 28.480469 25.5625 27.34375 25.308594 26.789062 24.453125 C 26.6875 24.328125 26.617188 24.1875 26.578125 24.03125 C 26.539062 23.875 26.535156 23.714844 26.566406 23.558594 C 26.597656 23.398438 26.660156 23.253906 26.757812 23.125 C 26.851562 22.996094 26.972656 22.890625 27.113281 22.8125 C 28.359375 22.222656 29.652344 21.777344 31 21.480469 C 31.691406 21.285156 31.84375 20.925781 31.511719 20.242188 C 30.914062 19.003906 30.246094 17.800781 29.664062 16.558594 C 29.101562 15.355469 29.863281 14.300781 31.148438 14.480469 C 31.691406 14.582031 32.214844 14.738281 32.726562 14.941406 C 39.050781 17.109375 45.363281 19.316406 51.699219 21.449219 C 58.464844 23.722656 65.132812 26.300781 71.988281 28.308594 C 72.53125 28.464844 72.988281 28.757812 73.363281 29.179688 C 73.734375 29.605469 73.964844 30.09375 74.050781 30.652344 C 74.363281 32.117188 74.296875 33.566406 73.851562 34.996094 C 73.011719 38.058594 71.492188 40.738281 69.289062 43.027344 C 68.253906 44.070312 67.109375 44.972656 65.851562 45.730469 C 65.546875 45.949219 65.210938 46.070312 64.835938 46.101562 C 64.464844 46.132812 64.113281 46.0625 63.777344 45.898438 C 63.363281 45.707031 62.929688 45.558594 62.507812 45.382812 C 51.09375 40.621094 39.6875 35.855469 28.277344 31.089844 C 27.761719 30.898438 27.273438 30.65625 26.8125 30.355469 C 26.707031 30.285156 26.613281 30.203125 26.527344 30.109375 C 26.445312 30.019531 26.371094 29.914062 26.3125 29.804688 C 26.253906 29.691406 26.210938 29.574219 26.183594 29.453125 C 26.15625 29.328125 26.144531 29.203125 26.148438 29.078125 C 26.152344 28.953125 26.171875 28.828125 26.207031 28.710938 C 26.246094 28.589844 26.296875 28.472656 26.359375 28.367188 C 26.425781 28.257812 26.503906 28.160156 26.59375 28.074219 C 26.683594 27.988281 26.785156 27.914062 26.894531 27.851562 Z M 33.074219 22.957031 C 32.082031 23.386719 31.015625 23.640625 29.820312 24.023438 C 30.652344 25.085938 31.683594 25.886719 32.921875 26.425781 C 40.347656 29.3125 47.546875 32.765625 55.097656 35.328125 C 55.984375 35.628906 56.152344 35.53125 56.492188 34.609375 C 56.589844 34.351562 56.6875 34.09375 56.757812 33.828125 C 56.898438 33.300781 57.046875 32.769531 57.152344 32.230469 C 57.3125 31.394531 57.171875 31.140625 56.296875 30.804688 C 52.445312 29.34375 48.601562 27.863281 44.726562 26.464844 C 41.625 25.34375 38.445312 24.449219 35.433594 23.085938 C 35.070312 22.882812 34.683594 22.769531 34.269531 22.75 C 33.855469 22.726562 33.457031 22.796875 33.074219 22.957031 Z M 55.285156 24.921875 C 48.734375 22.632812 42.171875 20.363281 35.605469 18.117188 C 34.757812 17.824219 33.898438 17.570312 33 17.285156 C 33.117188 18.558594 33.519531 19.734375 34.207031 20.8125 C 34.652344 21.429688 35.246094 21.816406 35.992188 21.972656 C 38.914062 23.023438 41.839844 24.058594 44.773438 25.074219 C 47.449219 25.996094 50.117188 26.933594 52.71875 28.0625 C 54.214844 28.710938 55.789062 29.1875 57.523438 29.8125 C 58.617188 25.382812 58.71875 26.121094 55.285156 24.921875 Z M 63.265625 43.449219 C 63.714844 43.71875 64.195312 43.828125 64.714844 43.773438 C 65.234375 43.722656 65.6875 43.515625 66.070312 43.164062 C 67.566406 42.003906 68.820312 40.625 69.835938 39.023438 C 70.847656 37.425781 71.5625 35.699219 71.972656 33.851562 C 72.085938 33.21875 72.136719 32.585938 72.121094 31.941406 C 72.144531 31.761719 72.136719 31.578125 72.089844 31.398438 C 72.046875 31.222656 71.972656 31.054688 71.867188 30.90625 C 71.761719 30.753906 71.628906 30.628906 71.476562 30.523438 C 71.324219 30.421875 71.15625 30.351562 70.976562 30.308594 C 69.242188 29.800781 67.597656 28.964844 65.632812 28.671875 C 64.398438 33.382812 61.757812 37.433594 60.316406 42.007812 C 61.210938 42.722656 62.3125 42.945312 63.265625 43.453125 Z M 56.867188 40.765625 C 57.273438 40.972656 57.695312 41.144531 58.128906 41.285156 C 58.382812 41.316406 58.640625 41.3125 58.890625 41.265625 C 59.039062 41.128906 59.160156 40.972656 59.257812 40.800781 C 60.601562 37.015625 62.796875 33.589844 63.957031 29.726562 C 64.378906 28.328125 64.246094 27.984375 62.800781 27.507812 C 59.335938 26.363281 59.609375 25.800781 59 29.699219 C 58.476562 32.960938 57.535156 36.097656 56.175781 39.109375 C 55.738281 40.105469 55.839844 40.289062 56.867188 40.765625 Z M 30.09375 29.507812 C 38.089844 32.894531 46.097656 36.246094 54.117188 39.570312 C 54.339844 39.570312 54.492188 39.464844 54.570312 39.257812 C 55.703125 36.949219 55.714844 36.917969 53.25 36.0625 C 47.882812 34.207031 42.714844 31.867188 37.484375 29.683594 C 36.453125 29.308594 35.445312 28.878906 34.460938 28.390625 C 32.699219 27.402344 31.210938 27.785156 29.785156 29.007812 C 29.914062 29.226562 29.964844 29.453125 30.09375 29.507812 Z M 30.09375 29.507812 " fill-opacity="1" fill-rule="nonzero"/></g></g></g><g clip-path="url(#f31b8e25cb)"><g clip-path="url(#dd9866f923)"><g clip-path="url(#622990cb25)"><path fill="#a6a6a6" d="M 3.058594 65.28125 C 2.949219 64.839844 2.917969 64.378906 2.835938 63.929688 C 2.316406 61.050781 1.890625 58.152344 1.214844 55.308594 C 0.945312 54.230469 0.992188 53.167969 1.351562 52.113281 C 3.984375 43.828125 6.605469 35.539062 9.214844 27.246094 C 9.371094 26.722656 9.554688 26.203125 9.761719 25.695312 C 9.832031 25.472656 9.960938 25.289062 10.148438 25.144531 C 10.335938 25 10.546875 24.925781 10.78125 24.921875 C 11.066406 24.890625 11.328125 24.953125 11.566406 25.113281 C 11.808594 25.269531 11.96875 25.484375 12.054688 25.761719 C 12.265625 26.457031 12.382812 27.183594 12.574219 27.886719 C 12.84375 28.863281 13.304688 28.992188 14.136719 28.332031 C 14.421875 28.109375 14.648438 27.808594 14.933594 27.582031 C 16.113281 26.660156 16.917969 27.015625 17.128906 28.5625 C 17.25 29.460938 17.300781 30.371094 17.417969 31.660156 C 18.296875 31.242188 18.878906 30.988281 19.4375 30.691406 C 20.246094 30.269531 21.007812 29.730469 21.847656 29.390625 C 22.097656 29.269531 22.363281 29.226562 22.640625 29.265625 C 22.917969 29.304688 23.160156 29.414062 23.371094 29.597656 C 23.582031 29.78125 23.726562 30.007812 23.800781 30.277344 C 23.875 30.542969 23.871094 30.8125 23.785156 31.078125 C 23.679688 31.613281 23.515625 32.140625 23.371094 32.671875 C 21.921875 37.96875 20.472656 43.261719 19.027344 48.558594 C 18.203125 51.558594 17.34375 54.550781 16.582031 57.566406 C 16.464844 58.246094 16.207031 58.863281 15.808594 59.425781 C 15.410156 59.988281 14.914062 60.441406 14.3125 60.777344 C 11.925781 62.121094 9.664062 63.683594 7.351562 65.148438 C 6.734375 65.542969 6.132812 65.964844 5.488281 66.308594 C 4.140625 67.023438 3.410156 66.707031 3.058594 65.28125 Z M 10.59375 30.546875 C 9.578125 32.636719 3.886719 50.714844 3.523438 53.035156 C 4.359375 53.355469 5.316406 52.769531 6.128906 53.5625 C 6.375 52.605469 6.566406 51.90625 6.730469 51.199219 C 8.085938 45.410156 9.4375 39.621094 10.78125 33.832031 C 10.960938 33.121094 11.089844 32.40625 11.175781 31.679688 C 11.214844 31.449219 11.175781 31.226562 11.070312 31.015625 C 10.960938 30.808594 10.804688 30.648438 10.59375 30.542969 Z M 14.984375 30.867188 C 14.160156 30.433594 13.871094 31.554688 13.261719 31.875 C 12.5625 32.246094 12.363281 32.976562 12.191406 33.707031 C 10.65625 40.296875 9.117188 46.886719 7.496094 53.828125 C 8.730469 53.890625 9.695312 54.144531 10.363281 54.917969 C 11.007812 54.535156 11.023438 53.953125 11.152344 53.449219 C 12.574219 47.769531 13.9375 42.070312 15.4375 36.414062 C 15.703125 35.15625 15.671875 33.902344 15.339844 32.660156 C 15.226562 32.042969 15.527344 31.152344 14.984375 30.867188 Z M 16.050781 51.535156 C 17.570312 45.984375 19.089844 40.4375 20.609375 34.886719 C 20.785156 34.273438 20.914062 33.652344 20.988281 33.015625 C 20.992188 32.949219 20.980469 32.882812 20.953125 32.820312 C 20.921875 32.757812 20.878906 32.707031 20.820312 32.667969 C 20.761719 32.628906 20.699219 32.609375 20.632812 32.601562 C 20.5625 32.597656 20.496094 32.609375 20.433594 32.640625 C 19.535156 33.074219 18.636719 33.519531 17.761719 34 C 17.222656 34.292969 17.164062 34.886719 17.03125 35.414062 C 16.46875 37.625 15.910156 39.839844 15.359375 42.054688 C 14.449219 45.6875 13.546875 49.320312 12.640625 52.953125 C 12.40625 53.921875 12.183594 54.894531 11.949219 55.890625 L 14.8125 56.042969 C 15.226562 54.519531 15.640625 53.027344 16.050781 51.535156 Z M 5.007812 60.101562 C 5.730469 60.21875 6.425781 60.417969 7.097656 60.710938 C 8.421875 61.429688 9.648438 61.792969 10.492188 60.703125 C 11.863281 59.9375 12.953125 59.429688 13.730469 58.496094 C 13.859375 58.355469 13.917969 58.1875 13.902344 57.996094 C 13.886719 57.804688 13.800781 57.648438 13.652344 57.527344 C 13.367188 57.257812 13 57.09375 12.679688 57.347656 C 12.183594 57.738281 11.769531 58.234375 11.296875 58.65625 C 10.824219 59.082031 10.105469 58.871094 10.089844 58.253906 C 10.109375 57.417969 9.898438 56.644531 9.445312 55.9375 C 9.371094 55.792969 9.269531 55.675781 9.132812 55.582031 C 9 55.492188 8.851562 55.441406 8.691406 55.425781 C 8.527344 55.410156 8.371094 55.433594 8.222656 55.496094 C 8.074219 55.5625 7.949219 55.65625 7.847656 55.785156 C 7.554688 56.125 7.242188 56.445312 6.910156 56.75 C 6.835938 56.804688 6.753906 56.84375 6.664062 56.863281 C 6.574219 56.878906 6.480469 56.875 6.390625 56.851562 C 6.300781 56.828125 6.222656 56.785156 6.152344 56.722656 C 6.082031 56.664062 6.03125 56.589844 5.996094 56.503906 C 5.757812 56.019531 5.640625 55.480469 5.410156 54.992188 C 5.324219 54.769531 5.171875 54.605469 4.957031 54.5 C 4.742188 54.398438 4.519531 54.382812 4.292969 54.457031 C 3.800781 54.585938 3.425781 54.90625 3.5 55.410156 C 3.691406 56.757812 3.945312 58.101562 4.222656 59.433594 C 4.339844 59.824219 4.601562 60.046875 5.003906 60.105469 Z M 5.007812 60.101562 " fill-opacity="1" fill-rule="nonzero"/></g></g></g><g clip-path="url(#2b0f66f418)"><g clip-path="url(#453d89f241)"><path fill="#a6a6a6" d="M 1.949219 58.273438 L 10.054688 58.273438 L 10.054688 66.226562 L 1.949219 66.226562 Z M 1.949219 58.273438 " fill-opacity="1" fill-rule="nonzero"/></g></g></svg>