<?xml version="1.0"?><svg xmlns="http://www.w3.org/2000/svg"  viewBox="0 0 100 100" width="100px" height="100px">    <path d="M 30.306641 17.574219 C 23.138641 17.574219 17.306641 23.406219 17.306641 30.574219 L 17.306641 69.574219 C 17.306641 76.742219 23.138641 82.574219 30.306641 82.574219 L 69.306641 82.574219 C 76.474641 82.574219 82.306641 76.742219 82.306641 69.574219 L 82.306641 30.574219 C 82.306641 23.406219 76.475641 17.574219 69.306641 17.574219 L 30.306641 17.574219 z M 30.306641 19.574219 L 69.306641 19.574219 C 75.371641 19.574219 80.306641 24.509219 80.306641 30.574219 L 80.306641 69.574219 C 80.306641 75.639219 75.371641 80.574219 69.306641 80.574219 L 30.306641 80.574219 C 24.241641 80.574219 19.306641 75.639219 19.306641 69.574219 L 19.306641 30.574219 C 19.306641 24.509219 24.241641 19.574219 30.306641 19.574219 z M 33.144531 22.574219 C 27.168531 22.574219 22.306641 27.436109 22.306641 33.412109 L 22.306641 66.738281 C 22.306641 72.714281 27.168531 77.574219 33.144531 77.574219 L 66.470703 77.574219 C 72.446703 77.574219 77.306641 72.714281 77.306641 66.738281 L 77.306641 48.074219 C 77.306641 47.797219 77.082641 47.574219 76.806641 47.574219 C 76.530641 47.574219 76.306641 47.798219 76.306641 48.074219 L 76.306641 66.738281 C 76.306641 72.162281 71.894703 76.574219 66.470703 76.574219 L 33.144531 76.574219 C 27.720531 76.574219 23.306641 72.162281 23.306641 66.738281 L 23.306641 33.412109 C 23.306641 27.988109 27.720531 23.574219 33.144531 23.574219 L 66.806641 23.574219 C 67.082641 23.574219 67.306641 23.350219 67.306641 23.074219 C 67.306641 22.798219 67.082641 22.574219 66.806641 22.574219 L 33.144531 22.574219 z M 76.806641 36.574219 C 76.530641 36.574219 76.306641 36.797219 76.306641 37.074219 L 76.306641 39.074219 C 76.306641 39.350219 76.530641 39.574219 76.806641 39.574219 C 77.082641 39.574219 77.306641 39.350219 77.306641 39.074219 L 77.306641 37.074219 C 77.306641 36.798219 77.082641 36.574219 76.806641 36.574219 z M 38.699219 38.576172 C 38.510219 38.576172 38.338906 38.682563 38.253906 38.851562 C 38.168906 39.020562 38.185828 39.224 38.298828 39.375 L 45.712891 49.326172 L 36.486328 60.763672 C 36.367328 60.911672 36.344734 61.117016 36.427734 61.291016 C 36.510734 61.465016 36.686906 61.574219 36.878906 61.574219 L 44.509766 61.574219 C 44.666766 61.574219 44.814203 61.502953 44.908203 61.376953 L 49.945312 54.693359 L 54.732422 61.365234 C 54.826422 61.496234 54.977672 61.574219 55.138672 61.574219 L 62.736328 61.574219 C 62.927328 61.574219 63.101547 61.466922 63.185547 61.294922 C 63.269547 61.123922 63.247859 60.920531 63.130859 60.769531 L 54.267578 49.339844 L 62.042969 39.382812 C 62.160969 39.232813 62.181656 39.027469 62.097656 38.855469 C 62.014656 38.684469 61.839438 38.576172 61.648438 38.576172 L 53.804688 38.576172 C 53.639688 38.576172 53.486578 38.657922 53.392578 38.794922 L 50.001953 43.751953 L 46.828125 38.806641 C 46.736125 38.663641 46.579203 38.576172 46.408203 38.576172 L 38.699219 38.576172 z M 39.697266 39.574219 L 46.136719 39.574219 L 49.570312 44.925781 C 49.661313 45.067781 49.816375 45.15425 49.984375 45.15625 C 50.159375 45.15125 50.309297 45.0765 50.404297 44.9375 L 54.070312 39.574219 L 60.626953 39.574219 L 53.242188 49.03125 C 53.101188 49.21225 53.100234 49.464531 53.240234 49.644531 L 61.71875 60.574219 L 55.396484 60.574219 L 50.363281 53.558594 C 50.270281 53.428594 50.121891 53.351609 49.962891 53.349609 C 49.809891 53.375609 49.653594 53.421828 49.558594 53.548828 L 44.263672 60.574219 L 37.927734 60.574219 L 46.734375 49.652344 C 46.877375 49.475344 46.882094 49.222062 46.746094 49.039062 L 39.697266 39.574219 z M 76.806641 40.574219 C 76.530641 40.574219 76.306641 40.798219 76.306641 41.074219 L 76.306641 45.074219 C 76.306641 45.350219 76.530641 45.574219 76.806641 45.574219 C 77.082641 45.574219 77.306641 45.350219 77.306641 45.074219 L 77.306641 41.074219 C 77.306641 40.797219 77.082641 40.574219 76.806641 40.574219 z"/></svg>