<svg xmlns="http://www.w3.org/2000/svg" version="1.1" xmlns:xlink="http://www.w3.org/1999/xlink" xmlns:svgjs="http://svgjs.dev/svgjs" width="100%" height="100%" viewBox="0 0 1000 600"><rect width="1000" height="600" x="0" y="0" fill="#141a46"/><g><circle r="166.66666666666666" cx="441.26993815104163" cy="463.4920809679228" fill="#ec8b5e" transform="matrix(0.4552022923852537,0,0,0.45520229238525367,0,89.01733816168942)"/><path d="M505.5072882442064 429.4307339560099L485.0650491324993 429.4307339560099Q478.6751571717538 418.5733327854211 468.16974157527386 412.3729715184265Q457.6372501654009 406.1996860648249 444.695011363552 406.1996860648249L444.695011363552 406.1996860648249Q433.64807949921226 406.1996860648249 424.5235303857748 410.8567259684191Q415.37190545894435 415.51376587201327 408.84663443123384 423.3657517559802Q402.3213634035234 431.2177376399472 398.7202802222558 441.56069835606917Q395.0921212275952 451.8765832587982 395.0921212275952 463.30257651063977L395.0921212275952 463.30257651063977Q395.0921212275952 476.8134073937415 399.09934160975763 487.2375955500425Q403.1065619919201 497.66178370634344 409.5235297660586 504.56611612155575Q415.9404975401971 511.47044853676806 424.7942885197047 516.1004126269693Q433.64807949921226 520.7033009037775 444.695011363552 520.7033009037775L444.695011363552 520.7033009037775Q459.7220877966612 520.7033009037775 470.8773229145728 513.4199071010632Q482.0054822190915 506.13651329834914 489.91161972984446 489.48488806166057L489.91161972984446 489.48488806166057L506.67154822010497 497.3910255724135Q503.04338922544434 507.65275884835654 494.3791289396877 517.2375967894748Q485.7148686539311 526.7953589172001 473.016312172619 532.6437346100859Q460.29067987791393 538.4921103029717 444.8845420573029 538.4921103029717L444.8845420573029 538.4921103029717Q430.1282237581236 538.4921103029717 417.7545770375274 532.9415685574088Q405.3809303169312 527.363950998453 395.71486493563395 517.0751419091168Q386.0487995543367 506.8134086331739 380.9585466364547 492.7069098554264Q375.86829371857266 478.6274868910718 375.86829371857266 463.30257651063977L375.86829371857266 463.30257651063977Q375.86829371857266 447.89643869002873 380.9585466364547 434.169001299783Q386.0487995543367 420.46863972293033 395.25457610795314 410.3422855139523Q404.43327684817655 400.1888554915812 417.13183332948864 394.34047979869547Q429.83038981080074 388.49210410580974 444.695011363552 388.49210410580974L444.695011363552 388.49210410580974Q457.93508411272387 388.49210410580974 467.5469978672351 392.25564216743527Q477.15891162174637 396.01918022906085 483.8737133432078 401.19066058712184Q490.5614392512762 406.3892167585758 495.43508566201433 412.48127477199847L495.43508566201433 412.48127477199847L505.5072882442064 412.48127477199847L505.5072882442064 429.4307339560099Z " fill="#141a46" transform="matrix(0.4552022923852537,0,0,0.45520229238525367,0,89.01733816168942)"/><path d="M820.815378059825 429.40119603123094L800.3878883763314 429.40119603123094Q794.0026068328817 418.55162866291175 783.5047710750068 412.35574106354744Q772.9798790394054 406.18690974190963 760.0469782861472 406.18690974190963L760.0469782861472 406.18690974190963Q749.0080169737428 406.18690974190963 739.8900513799183 410.8405895108645Q730.7450295083676 415.4942692798193 724.2244665762855 423.340589820499Q717.7039036442034 431.1869103611787 714.1054187065813 441.5224084526947Q710.4798774912329 451.8308502664842 710.4798774912329 463.2485994670595L710.4798774912329 463.2485994670595Q710.4798774912329 476.7496820525738 714.4842065947521 487.16634897726925Q718.4885356982713 497.5830159019647 724.9008735194475 504.4823667222175Q731.3132113406236 511.3817175424703 740.1606141571832 516.0083410336987Q749.0080169737428 520.6079082472006 760.0469782861472 520.6079082472006L760.0469782861472 520.6079082472006Q775.0632124243446 520.6079082472006 786.2103988476549 513.3297695387771Q797.3305289932389 506.0516308303534 805.2309620893716 489.4120200285672L805.2309620893716 489.4120200285672L821.9787980020637 497.31245312469986Q818.3532567867152 507.5667823830364 809.695247914241 517.144704698211Q801.037239041767 526.695570735659 788.347844788047 532.5397267245789Q775.6313942566006 538.383882713499 760.2363722302325 538.383882713499L760.2363722302325 538.383882713499Q745.4907008693001 538.383882713499 733.125981948298 532.8373457795703Q720.7612630272959 527.2637525679152 711.1021718789418 516.982367031852Q701.443080730588 506.7280377735155 696.3565005180094 492.63171707801854Q691.2699203054308 478.5624526602481 691.2699203054308 463.2485994670595L691.2699203054308 463.2485994670595Q691.2699203054308 447.8535774406914 696.3565005180094 434.1360446333652Q701.443080730588 420.4455681037655 710.6422151575916 410.3265202340613Q719.814293306869 400.1804160866307 732.5036875605889 394.3362600977107Q745.1930818143088 388.49210410879067 760.0469782861472 388.49210410879067L760.0469782861472 388.49210410879067Q773.2774980943968 388.49210410879067 782.8824766872978 392.2529267127716Q792.4874552801987 396.0137493167526 799.1974121563662 401.1814983625106Q805.8803127548072 406.376303685995 810.7504427455739 412.4639661744534L810.7504427455739 412.4639661744534L820.815378059825 412.4639661744534L820.815378059825 429.40119603123094ZM836.1292312530136 486.27349181229533L836.1292312530136 486.27349181229533Q836.2374563639196 474.5581235567288 839.8900538569947 464.9531449638278Q843.5697076277961 455.34816637092683 850.1173268376047 448.448815550674Q856.6920023251397 441.57652100814767 865.7287990857845 437.84275468189315Q874.7655958464294 434.1360446333652 885.6151632147486 434.1360446333652L885.6151632147486 434.1360446333652Q896.5458994162472 434.1360446333652 905.636808732345 437.84275468189315Q914.7006617707164 441.57652100814767 921.1671121473455 448.36764671749455Q927.6335625239747 455.15877242684144 931.2591037393231 464.7637510197424Q934.8846449546717 474.36872961264345 934.8846449546717 486.08409786821L934.8846449546717 486.08409786821Q934.8846449546717 497.5830159019647 931.2591037393231 507.2421070503186Q927.6335625239747 516.9011981986725 921.1671121473455 523.8546615743784Q914.7006617707164 530.7810686723576 905.636808732345 534.6501163872446Q896.5458994162472 538.4921078244049 885.6151632147486 538.4921078244049L885.6151632147486 538.4921078244049Q874.4679767914381 538.4921078244049 865.4311800307933 534.6771726649711Q856.3943832701484 530.8892937832636 849.9279328935193 523.9899429630109Q843.4614825168901 517.0905921427579 839.8629975792682 507.48561354985696Q836.2374563639196 497.880634956956 836.1292312530136 486.27349181229533ZM854.8792317174655 486.27349181229533L854.8792317174655 486.27349181229533Q854.8792317174655 494.7421067406841 857.3142967128488 501.587345005484Q859.7223054305057 508.4325832702838 863.9701410335633 513.2486007055975Q868.1909203588943 518.0375618631849 873.7645135705496 520.6620208026536Q879.3381067822048 523.2594234643957 885.6151632147486 523.2594234643957L885.6151632147486 523.2594234643957Q892.1627824245571 523.2594234643957 897.8175444693918 520.7161333581064Q903.4723065142265 518.1457869740907 907.6660295618311 513.3297695387771Q911.8597526094359 508.5408083811897 914.2407050493662 501.66851383866344Q916.6216574892966 494.82327557386355 916.6216574892966 486.27349181229533L916.6216574892966 486.27349181229533Q916.6216574892966 477.31786388482993 914.2407050493662 470.3914567868506Q911.8597526094359 463.4379934111448 907.7201421172841 458.78431364219Q903.5805316251324 454.1306338732351 897.8716570248448 451.7496814333048Q892.1627824245571 449.36872899337436 885.6151632147486 449.36872899337436L885.6151632147486 449.36872899337436Q879.3381067822048 449.36872899337436 873.7645135705496 451.7496814333048Q868.1909203588943 454.1306338732351 863.9701410335633 458.78431364219Q859.7223054305057 463.4379934111448 857.3142967128488 470.3914567868506Q854.8792317174655 477.31786388482993 854.8792317174655 486.27349181229533ZM1010.8857290883586 463.4379934111448Q1010.8857290883586 459.4336643076255 1009.0188459252314 456.64686770179793Q1007.1790190398307 453.83301481824384 1004.2298847676442 452.07435676602256Q1001.2807504954577 450.3156987138012 997.6552092801091 449.5040103820068Q994.0296680647607 448.69232205021234 990.6205770712239 448.69232205021234L990.6205770712239 448.69232205021234Q986.80564191179 448.69232205021234 983.6130011400652 449.55812293745976Q980.4474166460668 450.4239238247072 978.1476330393159 452.02024421056956Q975.8749057102914 453.64362087415844 974.5762043794202 455.9704607586359Q973.3045593262757 458.2973006431133 973.3045593262757 461.16526608212035L973.3045593262757 461.16526608212035Q973.3045593262757 466.1165649060665 976.3078061539151 469.01158662280005Q979.283996703828 471.9066083395336 986.3456851904398 474.36872961264345L986.3456851904398 474.36872961264345L1005.2580233212504 481.0516302110844Q1017.4333482981672 485.13712814778313 1023.0610540652754 492.17176035666836Q1028.6617035546572 499.2063925655536 1028.6617035546572 509.00076510253996L1028.6617035546572 509.00076510253996Q1028.6617035546572 515.575440590075 1026.0372446151885 521.0408086908243Q1023.4398419534461 526.5061767915736 1018.6238245181324 530.348168228734Q1013.8348633605451 534.2172159436209 1007.0707939289248 536.3546618840129Q1000.3067244973043 538.4921078244049 992.0545597907274 538.4921078244049L992.0545597907274 538.4921078244049Q980.5285854792462 538.4921078244049 973.3045593262757 534.785397775877Q966.080533173305 531.078687727349 962.1844291806917 524.9910252388906L962.1844291806917 524.9910252388906L952.2818315327994 524.9910252388906L952.2818315327994 508.6219772143692L971.978801717678 508.6219772143692Q971.978801717678 512.7074751510679 973.7374597698994 515.6024968678014Q975.4961178221206 518.5245748622615 978.3911395388543 520.3102891922092Q981.2861612555878 522.1230597998835 984.9658150263892 522.9888606871309Q988.6184125194643 523.8546615743784 992.4333476788981 523.8546615743784L992.4333476788981 523.8546615743784Q996.1400577274262 523.8546615743784 999.5491487209629 522.934748131678Q1002.9852959922259 522.0418909667042 1005.6097549316947 520.2832329144828Q1008.207157593437 518.5245748622615 1009.72230914612 516.0353973114252Q1011.2645169765294 513.5732760383153 1011.2645169765294 510.43474782204345L1011.2645169765294 510.43474782204345Q1011.2645169765294 505.6728429421827 1008.153045037984 502.34492078182546Q1005.0686293771652 499.0169986214682 997.6552092801091 496.365483404273L997.6552092801091 496.365483404273L978.8240399824779 489.30379491766126Q967.2980656709967 485.2182969809626 961.7515287370679 478.8871279929659Q956.1779355254127 472.5830152826956 956.1779355254127 463.0592055229741L956.1779355254127 463.0592055229741Q956.1779355254127 456.7821490904303 958.5047754098903 451.4520623783135Q960.8316152943676 446.1219756661966 965.2688448415106 442.2799842290362Q969.6790181109271 438.4379927918758 976.0642996543768 436.24643429603077Q982.4225249200999 434.05487580018575 990.6205770712239 434.05487580018575L990.6205770712239 434.05487580018575Q1001.1725253845518 434.05487580018575 1008.3153827043429 437.00401007237224Q1015.4311837464077 439.9531443445588 1021.1400583466952 447.0689453866234L1021.1400583466952 447.0689453866234L1030.3662490514255 447.0689453866234L1030.3662490514255 463.4379934111448L1010.8857290883586 463.4379934111448ZM1048.4398425727152 453.34600181916716L1048.4398425727152 437.00401007237224L1079.8251247354337 437.00401007237224L1079.8251247354337 448.50292810612694L1080.0145186795194 448.50292810612694Q1083.261272006697 445.74318777802586 1086.8327006665927 443.33517906036894Q1090.4041293264884 440.90011406498564 1094.3002333191016 439.08734345731136Q1098.196337311715 437.2745728496371 1102.417116637046 436.24643429603077Q1106.6649522401037 435.19123946469796 1111.2374631758792 435.19123946469796L1111.2374631758792 435.19123946469796Q1121.8705803223866 435.19123946469796 1129.5816194744336 439.1414560127643Q1137.292658626481 443.0916725608306 1141.4863816740856 451.4520623783135L1141.4863816740856 451.4520623783135Q1145.0848666117076 448.23236532886216 1149.089195715227 445.2291185012227Q1153.0664685410197 442.2258716735832 1157.3954729772568 440.0343131777382Q1161.7244774134938 437.84275468189315 1166.4863822933546 436.5169970732956Q1171.2482871732154 435.19123946469796 1176.388979941247 435.19123946469796L1176.388979941247 435.19123946469796Q1184.370581870559 435.19123946469796 1190.7558634140087 437.382797960543Q1197.114088679732 439.574356456388 1201.5783745046015 444.03864228125747Q1206.0697166071973 448.50292810612694 1208.3965564916748 455.5105040372857Q1210.7233963761523 462.491023690718 1210.7233963761523 472.01483345043954L1210.7233963761523 472.01483345043954L1210.7233963761523 519.1739255276971L1224.4138729057518 519.1739255276971L1224.4138729057518 535.5429735522184L1178.3911444930065 535.5429735522184L1178.3911444930065 519.1739255276971L1192.2710149666916 519.1739255276971L1192.2710149666916 474.17933566855805Q1192.2710149666916 462.8698115788887 1186.562140366404 457.02565558996866Q1180.8532657661165 451.18149960104864 1170.1119235087033 451.18149960104864L1170.1119235087033 451.18149960104864Q1163.7266419652535 451.18149960104864 1157.0707976445392 454.2118027064146Q1150.4149533238246 457.269162089507 1145.6530484439638 461.9228418584619L1145.6530484439638 461.9228418584619L1145.6530484439638 519.1739255276971L1159.262356140384 519.1739255276971L1159.262356140384 535.5429735522184L1113.3207965608183 535.5429735522184L1113.3207965608183 519.1739255276971L1127.2006670345033 519.1739255276971L1127.2006670345033 474.17933566855805Q1127.2006670345033 462.8698115788887 1121.4647361564892 457.02565558996866Q1115.7017490007486 451.18149960104864 1104.9604067433354 451.18149960104864L1104.9604067433354 451.18149960104864Q1098.764519143971 451.18149960104864 1092.4874627114273 454.1306338732351Q1086.2104062788835 457.0797681454216 1080.609756789502 461.4358288593852L1080.609756789502 461.4358288593852L1080.609756789502 519.1739255276971L1094.489627263187 519.1739255276971L1094.489627263187 535.5429735522184L1048.4398425727152 535.5429735522184L1048.4398425727152 519.1739255276971L1062.1573753800415 519.1739255276971L1062.1573753800415 453.34600181916716L1048.4398425727152 453.34600181916716ZM1242.676860371127 453.34600181916716L1242.676860371127 437.00401007237224L1274.8197183101872 437.00401007237224L1274.8197183101872 519.1739255276971L1289.6736147820257 519.1739255276971L1289.6736147820257 535.5429735522184L1242.8662543152125 535.5429735522184L1242.8662543152125 519.1739255276971L1256.9625750107093 519.1739255276971L1256.9625750107093 453.34600181916716L1242.676860371127 453.34600181916716ZM1253.6346528503523 402.10141180521094L1253.6346528503523 402.10141180521094Q1253.6346528503523 399.6122342543746 1254.6086788485054 397.3936194808031Q1255.6097611243854 395.1479484295051 1257.287250343427 393.4704592104633Q1258.9376832847424 391.8200262691479 1261.2374668914936 390.8189439932681Q1263.5101942205179 389.8178617173882 1266.0805406045338 389.8178617173882L1266.0805406045338 389.8178617173882Q1268.5426618776435 389.8178617173882 1270.7883329289414 390.8189439932681Q1273.0340039802395 391.8200262691479 1274.6844369215548 393.4704592104633Q1276.3619261405968 395.1479484295051 1277.3630084164765 397.3936194808031Q1278.3640906923563 399.6122342543746 1278.3640906923563 402.10141180521094L1278.3640906923563 402.10141180521094Q1278.3640906923563 404.6447019115002 1277.3630084164765 406.94448551825116Q1276.3619261405968 409.2172128472756 1274.6844369215548 410.9758708994969Q1273.0340039802395 412.73452895171823 1270.7883329289414 413.735611227598Q1268.5426618776435 414.73669350347785 1266.0805406045338 414.73669350347785L1266.0805406045338 414.73669350347785Q1263.5101942205179 414.73669350347785 1261.2374668914936 413.735611227598Q1258.9376832847424 412.73452895171823 1257.287250343427 410.9758708994969Q1255.6097611243854 409.2172128472756 1254.6086788485054 406.94448551825116Q1253.6346528503523 404.6447019115002 1253.6346528503523 402.10141180521094ZM1394.9766476934922 463.2485994670595L1377.0924481162879 463.2485994670595Q1373.0881190127686 456.1057421472683 1366.9463439688573 452.7778199869111Q1360.8316252026723 449.4498978265538 1352.7417981624544 449.4498978265538L1352.7417981624544 449.4498978265538Q1346.54591056309 449.4498978265538 1341.1346550177939 452.02024421056956Q1335.6963431947709 454.5905905945853 1331.6649578135252 459.35249547444613Q1327.6335724322794 464.1144003543069 1325.306732547802 470.9055260636538Q1322.9528363855982 477.69665177300067 1322.9528363855982 486.08409786821L1322.9528363855982 486.08409786821Q1322.9528363855982 494.3633188525134 1325.306732547802 501.01916317322787Q1327.6335724322794 507.67500749394236 1331.7190703689782 512.3827998183501Q1335.8045683056769 517.0905921427579 1341.1887675732467 519.6068259713207Q1346.54591056309 522.1230597998835 1352.7417981624544 522.1230597998835L1352.7417981624544 522.1230597998835Q1361.8597637562787 522.1230597998835 1368.6238331878992 517.712886530467Q1375.3879026195198 513.2756569833241 1379.3651754453124 504.7258732217559L1379.3651754453124 504.7258732217559L1394.0296779730654 511.94989937472644Q1391.1617125340583 518.0375618631849 1386.9679894864537 522.8806355762251Q1382.8013227165754 527.7507655669917 1377.5253485599117 531.1598565605284Q1372.2223181255213 534.5960038317917 1365.918205415251 536.4358307171924Q1359.5870364272544 538.3027138803195 1352.552404218369 538.3027138803195L1352.552404218369 538.3027138803195Q1342.271018682306 538.3027138803195 1333.558897254379 534.4607224431593Q1324.8738321041783 530.5916747282723 1318.5426631161815 523.6652676302931Q1312.211494128185 516.7118042545872 1308.6941780237423 507.10682566168623Q1305.1768619192997 497.50184706878525 1305.1768619192997 486.08409786821L1305.1768619192997 486.08409786821Q1305.1768619192997 474.66634866763474 1308.8835719678275 465.0613700747337Q1312.5902820163558 455.4563914818327 1319.0567323929847 448.55704066157995Q1325.5231827696136 441.6576898413271 1334.181191642088 437.76158584871376Q1342.8392005145622 433.8654818561004 1352.7417981624544 433.8654818561004L1352.7417981624544 433.8654818561004Q1362.049157700364 433.8654818561004 1370.3824912401203 437.0851789055517Q1378.7158247798768 440.3319322327295 1384.9928812124206 446.87955144253806L1384.9928812124206 446.87955144253806L1394.9766476934922 446.87955144253806L1394.9766476934922 463.2485994670595ZM1402.768855678719 535.5429735522184Q1402.768855678719 535.5429735522184 1402.768855678719 535.5429735522184ZM1581.7731891171218 429.40119603123094L1561.3456994336282 429.40119603123094Q1554.9604178901784 418.55162866291175 1544.4625821323034 412.35574106354744Q1533.937690096702 406.18690974190963 1521.0047893434437 406.18690974190963L1521.0047893434437 406.18690974190963Q1509.9658280310393 406.18690974190963 1500.8478624372149 410.8405895108645Q1491.702840565664 415.4942692798193 1485.182277633582 423.340589820499Q1478.6617147015002 431.1869103611787 1475.0632297638779 441.5224084526947Q1471.4376885485294 451.8308502664842 1471.4376885485294 463.2485994670595L1471.4376885485294 463.2485994670595Q1471.4376885485294 476.7496820525738 1475.4420176520487 487.16634897726925Q1479.446346755568 497.5830159019647 1485.8586845767443 504.4823667222175Q1492.2710223979202 511.3817175424703 1501.1184252144799 516.0083410336987Q1509.9658280310393 520.6079082472006 1521.0047893434437 520.6079082472006L1521.0047893434437 520.6079082472006Q1536.0210234816411 520.6079082472006 1547.1682099049515 513.3297695387771Q1558.2883400505357 506.0516308303534 1566.1887731466682 489.4120200285672L1566.1887731466682 489.4120200285672L1582.9366090593603 497.31245312469986Q1579.3110678440119 507.5667823830364 1570.6530589715378 517.144704698211Q1561.9950500990637 526.695570735659 1549.3056558453438 532.5397267245789Q1536.589205313897 538.383882713499 1521.1941832875293 538.383882713499L1521.1941832875293 538.383882713499Q1506.4485119265967 538.383882713499 1494.0837930055945 532.8373457795703Q1481.7190740845924 527.2637525679152 1472.0599829362386 516.982367031852Q1462.4008917878846 506.7280377735155 1457.3143115753062 492.63171707801854Q1452.2277313627274 478.5624526602481 1452.2277313627274 463.2485994670595L1452.2277313627274 463.2485994670595Q1452.2277313627274 447.8535774406914 1457.3143115753062 434.1360446333652Q1462.4008917878846 420.4455681037655 1471.6000262148884 410.3265202340613Q1480.7721043641657 400.1804160866307 1493.4614986178856 394.3362600977107Q1506.1508928716053 388.49210410879067 1521.0047893434437 388.49210410879067L1521.0047893434437 388.49210410879067Q1534.2353091516934 388.49210410879067 1543.8402877445944 392.2529267127716Q1553.4452663374952 396.0137493167526 1560.1552232136628 401.1814983625106Q1566.8381238121037 406.376303685995 1571.7082538028706 412.4639661744534L1571.7082538028706 412.4639661744534L1581.7731891171218 412.4639661744534L1581.7731891171218 429.40119603123094ZM1602.525354133333 407.8102864054985L1602.525354133333 391.33301327007126L1662.5361781306694 391.33301327007126Q1672.1411567235702 391.33301327007126 1680.2850963192413 393.849247098634Q1688.4019796371858 396.39253720492326 1694.3543607370118 401.2897234734165Q1700.3067418368378 406.18690974190963 1703.634663997195 413.4921047280597Q1706.9625861575523 420.8243559919362 1706.9625861575523 430.34816575165775L1706.9625861575523 430.34816575165775Q1706.9625861575523 435.7594212969541 1705.0145341612456 441.03539545361804Q1703.066482164939 446.31136961028193 1699.6032786159492 450.82976799060435Q1696.1130187892331 455.34816637092683 1691.3511139093723 458.86548247536945Q1686.616265307238 462.38279857981206 1680.98855954013 464.30379429839223L1680.98855954013 464.30379429839223Q1683.3695119800602 465.33193285199854 1685.8045769754438 467.3070411260317Q1688.2125856931004 469.2550931223384 1690.3500316334926 472.041889728166Q1692.514533851611 474.8557426117201 1694.2731919038324 478.4271712716157Q1696.0318499560537 481.99859993151125 1697.05998850966 486.08409786821L1697.05998850966 486.08409786821L1705.0686467166986 517.4693800309287L1717.51453447088 517.4693800309287L1717.7039284149653 535.5429735522184L1689.646568412604 535.5429735522184L1678.9052261551908 491.6847473575917Q1675.9560918830045 479.8882102688457 1669.922541949999 474.34167333491695Q1663.861935739267 468.7680801232617 1653.418212536845 468.7680801232617L1653.418212536845 468.7680801232617L1634.8576060164785 468.7680801232617L1634.8576060164785 519.1739255276971L1649.3327146001463 519.1739255276971L1649.3327146001463 535.5429735522184L1602.525354133333 535.5429735522184L1602.525354133333 519.1739255276971L1616.2158306629328 519.1739255276971L1616.2158306629328 407.8102864054985L1602.525354133333 407.8102864054985ZM1660.2634508016451 407.8102864054985L1634.8576060164785 407.8102864054985L1634.8576060164785 453.1566078750818L1662.5361781306694 453.1566078750818Q1667.974489953692 453.1566078750818 1672.4928883340147 451.7496814333048Q1677.0112867143373 450.3156987138012 1680.2850963192413 447.4747895525207Q1683.5589059241456 444.6068241135136 1685.425789087273 440.38604478818246Q1687.2656159726737 436.1382091851248 1687.2656159726737 430.53755969574314L1687.2656159726737 430.53755969574314Q1687.2656159726737 419.76916116060346 1680.7991655960443 413.789723783051Q1674.3327152194154 407.8102864054985 1660.2634508016451 407.8102864054985L1660.2634508016451 407.8102864054985ZM1741.215833759278 535.5429735522184L1741.215833759278 519.1739255276971L1754.9063102888779 519.1739255276971L1754.9063102888779 409.5148319022669L1741.215833759278 409.5148319022669L1741.215833759278 391.33301327007126L1786.8597742838526 391.33301327007126L1832.6119399193333 515.8460033673398L1878.93228738707 391.33301327007126L1922.2223317494402 391.33301327007126L1922.2223317494402 409.5148319022669L1908.61302405302 409.5148319022669L1908.61302405302 519.1739255276971L1922.2223317494402 519.1739255276971L1922.2223317494402 535.5429735522184L1875.4149712826268 535.5429735522184L1875.4149712826268 519.1739255276971L1890.8370495867218 519.1739255276971L1890.8370495867218 408.4596370709341L1840.4041479045597 535.5429735522184L1824.2515501018504 535.5429735522184L1773.1692977542527 408.1890742936693L1773.1692977542527 519.1739255276971L1787.996137948365 519.1739255276971L1787.996137948365 535.5429735522184L1741.215833759278 535.5429735522184Z " fill="#ec8b5e" transform="matrix(0.4552022923852537,0,0,0.45520229238525367,0,89.01733816168942)"/></g></svg>