<?xml version="1.0" encoding="UTF-8"?>
<svg id="Capa_1" data-name="Capa 1" xmlns="http://www.w3.org/2000/svg" viewBox="0 0 17.69 17.67">
  <defs>
    <style>
      .cls-1 {
        fill: #ffffff;
        stroke-width: 0px;
      }
    </style>
  </defs>
  <path class="cls-1" d="M16.33,2.48L9.51.11c-.43-.15-.89-.15-1.31,0L1.35,2.48C.54,2.76,0,3.52,0,4.38v7.88c.01.76.44,1.45,1.12,1.79l6.84,3.4c.56.28,1.22.28,1.79,0l6.83-3.4c.68-.34,1.11-1.04,1.11-1.8v-7.89c-.01-.85-.55-1.61-1.36-1.89ZM7.09,15.13l-5.05-2.51c-.22-.11-.36-.33-.36-.57v-6.81c0-.42.4-.73.81-.62l5.1,1.42c.28.08.47.33.47.62l-.05,7.9c0,.47-.5.78-.93.57ZM4.55,3.18l4.25-1.5s.07-.01.1,0l4.25,1.49c.14.05.13.24,0,.28l-4.25,1.19s-.05,0-.08,0l-4.25-1.17c-.14-.04-.15-.23-.01-.28ZM15.65,12.61l-5.02,2.52c-.43.21-.93-.1-.93-.57v-7.91c0-.29.2-.54.47-.62l5.04-1.4c.41-.11.82.19.81.62l-.02,6.8c0,.24-.14.46-.35.57Z"/>
</svg>