<?xml version="1.0" encoding="UTF-8"?>
<svg id="Capa_1" data-name="Capa 1" xmlns="http://www.w3.org/2000/svg" viewBox="0 0 24 24">
  <defs>
    <style>
      .cls-1 {
        fill: #13214e;
        stroke-width: 0px;
      }
    </style>
  </defs>
  <polygon class="cls-1" points="18.45 19.38 18.45 16.38 15.45 16.38 15.45 14.38 18.45 14.38 18.45 11.38 20.45 11.38 20.45 14.38 23.45 14.38 23.45 16.38 20.45 16.38 20.45 19.38 18.45 19.38"/>
  <path class="cls-1" d="M16.95,17.67h-3.1l-.58.29c-.43.21-.93-.1-.93-.57v-7.91c0-.29.2-.54.47-.62l5.04-1.4c.41-.11.82.19.81.62v1.6s1.66,0,1.66,0v-2.46c0-.85-.54-1.61-1.35-1.89l-6.82-2.37c-.43-.15-.89-.15-1.31,0l-6.85,2.37c-.81.28-1.35,1.04-1.35,1.9v7.88c.01.76.44,1.45,1.12,1.79l6.84,3.4c.56.28,1.22.28,1.79,0l4.56-2.27v-.35ZM10.66,17.39c0,.47-.5.78-.93.57l-5.05-2.51c-.22-.11-.36-.33-.36-.57v-6.81c0-.42.4-.73.81-.62l5.1,1.42c.28.08.47.33.47.62l-.05,7.9ZM11.46,7.47l-4.25-1.17c-.14-.04-.15-.23-.01-.28l4.25-1.5s.07-.01.1,0l4.25,1.49c.14.05.13.24,0,.28l-4.25,1.19s-.05,0-.08,0Z"/>
</svg>