<svg xmlns="http://www.w3.org/2000/svg" xmlns:xlink="http://www.w3.org/1999/xlink" width="20" zoomAndPan="magnify" viewBox="0 0 810 809.999993" height="20" preserveAspectRatio="xMidYMid meet" version="1.0"><defs><clipPath id="eadbb1342a"><path d="M 168 365 L 641 365 L 641 757.230469 L 168 757.230469 Z M 168 365 " clip-rule="nonzero"/></clipPath></defs><rect x="-81" width="972" fill="#ffffff" y="-80.999999" height="971.999992" fill-opacity="1"/><rect x="-81" width="972" fill="#ffffff" y="-80.999999" height="971.999992" fill-opacity="1"/><path fill="#000000" d="M 405.117188 341.328125 L 404.957031 341.328125 C 400.261719 341.332031 395.582031 341.101562 390.910156 340.640625 C 386.238281 340.179688 381.605469 339.484375 377.003906 338.5625 C 372.402344 337.636719 367.855469 336.488281 363.367188 335.113281 C 358.878906 333.738281 354.472656 332.144531 350.140625 330.332031 C 345.8125 328.519531 341.582031 326.496094 337.453125 324.261719 C 333.328125 322.027344 329.316406 319.59375 325.429688 316.960938 C 321.542969 314.332031 317.796875 311.511719 314.1875 308.507812 C 310.578125 305.503906 307.128906 302.328125 303.835938 298.980469 C 300.515625 295.636719 297.363281 292.144531 294.382812 288.496094 C 291.402344 284.84375 288.609375 281.058594 285.996094 277.136719 C 283.386719 273.214844 280.972656 269.175781 278.753906 265.015625 C 276.539062 260.855469 274.53125 256.601562 272.730469 252.246094 C 270.925781 247.890625 269.34375 243.457031 267.972656 238.949219 C 266.605469 234.4375 265.460938 229.871094 264.535156 225.25 C 263.613281 220.628906 262.917969 215.972656 262.449219 211.28125 C 261.980469 206.589844 261.742188 201.890625 261.730469 197.175781 C 261.539062 158.378906 278.21875 120.25 307.5 92.644531 C 335.054688 66.652344 370.875 52.964844 405.820312 55.152344 C 440.316406 53.289062 475.714844 67.070312 503 93.007812 C 532.121094 120.667969 548.6875 158.769531 548.503906 197.53125 C 548.496094 202.246094 548.253906 206.945312 547.785156 211.632812 C 547.316406 216.320312 546.617188 220.976562 545.691406 225.59375 C 544.769531 230.214844 543.617188 234.777344 542.246094 239.285156 C 540.875 243.792969 539.285156 248.222656 537.476562 252.574219 C 535.671875 256.921875 533.65625 261.175781 531.433594 265.328125 C 529.210938 269.480469 526.789062 273.515625 524.171875 277.433594 C 521.554688 281.347656 518.75 285.125 515.761719 288.765625 C 512.773438 292.40625 509.613281 295.890625 506.285156 299.222656 C 502.984375 302.558594 499.527344 305.726562 495.914062 308.71875 C 492.300781 311.710938 488.546875 314.519531 484.65625 317.140625 C 480.761719 319.761719 476.75 322.183594 472.621094 324.40625 C 468.488281 326.628906 464.257812 328.644531 459.925781 330.445312 C 455.59375 332.25 451.183594 333.832031 446.695312 335.195312 C 442.207031 336.5625 437.664062 337.703125 433.0625 338.613281 C 428.460938 339.527344 423.824219 340.210938 419.15625 340.667969 C 414.488281 341.121094 409.808594 341.339844 405.117188 341.328125 Z M 405.117188 341.328125 " fill-opacity="1" fill-rule="nonzero"/><g clip-path="url(#eadbb1342a)"><path fill="#000000" d="M 404.382812 757.183594 C 388.496094 757.167969 372.667969 756.238281 356.890625 754.394531 C 341.113281 752.554688 325.496094 749.8125 310.035156 746.171875 C 294.574219 742.53125 279.371094 738.015625 264.429688 732.625 C 249.488281 727.230469 234.902344 721 220.675781 713.925781 C 183.707031 695.480469 167.109375 680.597656 168.46875 667.105469 L 186.175781 491.265625 C 186.230469 463.484375 196.53125 437.132812 215.953125 415.050781 C 234.769531 393.671875 261.488281 377.746094 291.183594 370.214844 C 304.425781 366.925781 317.863281 365.320312 331.503906 365.386719 L 483.78125 365.386719 C 520.722656 367.640625 555.007812 381.738281 580.3125 405.066406 C 605.613281 428.394531 619.761719 459.085938 619.851562 491.207031 L 640.886719 665.664062 C 642.503906 679.226562 626.324219 694.175781 589.921875 712.710938 C 575.675781 719.9375 561.058594 726.3125 546.070312 731.835938 C 531.082031 737.355469 515.824219 741.988281 500.296875 745.734375 C 484.769531 749.476562 469.078125 752.304688 453.222656 754.21875 C 437.367188 756.132812 421.453125 757.117188 405.480469 757.175781 Z M 404.382812 757.183594 " fill-opacity="1" fill-rule="nonzero"/></g></svg>